<mxfile host="app.diagrams.net" modified="2024-02-05T07:42:06.366Z" agent="Mozilla/5.0 (Windows NT 10.0; Win64; x64) AppleWebKit/537.36 (KHTML, like Gecko) Chrome/120.0.0.0 YaBrowser/24.1.0.0 Safari/537.36" etag="T3U_TM6q703mQhvGQK9y" version="23.1.1" type="github">
  <diagram name="Страница — 1" id="oVYtKL4oQiBqcm2RmJic">
    <mxGraphModel dx="1912" dy="1055" grid="1" gridSize="10" guides="1" tooltips="1" connect="1" arrows="1" fold="1" page="1" pageScale="1" pageWidth="827" pageHeight="1169" math="0" shadow="0">
      <root>
        <mxCell id="0" />
        <mxCell id="1" parent="0" />
        <mxCell id="UmjqQ-2BNXsNT93DCILW-3" value="" style="edgeStyle=orthogonalEdgeStyle;rounded=0;orthogonalLoop=1;jettySize=auto;html=1;" edge="1" parent="1">
          <mxGeometry relative="1" as="geometry">
            <mxPoint x="414" y="160" as="sourcePoint" />
            <mxPoint x="414" y="190" as="targetPoint" />
          </mxGeometry>
        </mxCell>
        <mxCell id="UmjqQ-2BNXsNT93DCILW-7" value="" style="edgeStyle=orthogonalEdgeStyle;rounded=0;orthogonalLoop=1;jettySize=auto;html=1;" edge="1" parent="1" source="UmjqQ-2BNXsNT93DCILW-5" target="UmjqQ-2BNXsNT93DCILW-6">
          <mxGeometry relative="1" as="geometry" />
        </mxCell>
        <mxCell id="UmjqQ-2BNXsNT93DCILW-5" value="greetings =&amp;nbsp; &quot;Привет&quot; + User.Name" style="rounded=0;whiteSpace=wrap;html=1;" vertex="1" parent="1">
          <mxGeometry x="354" y="190" width="120" height="60" as="geometry" />
        </mxCell>
        <mxCell id="UmjqQ-2BNXsNT93DCILW-9" value="" style="edgeStyle=orthogonalEdgeStyle;rounded=0;orthogonalLoop=1;jettySize=auto;html=1;" edge="1" parent="1" source="UmjqQ-2BNXsNT93DCILW-6" target="UmjqQ-2BNXsNT93DCILW-8">
          <mxGeometry relative="1" as="geometry" />
        </mxCell>
        <mxCell id="UmjqQ-2BNXsNT93DCILW-6" value="Вывести greetings" style="shape=parallelogram;perimeter=parallelogramPerimeter;whiteSpace=wrap;html=1;fixedSize=1;" vertex="1" parent="1">
          <mxGeometry x="354" y="270" width="120" height="60" as="geometry" />
        </mxCell>
        <mxCell id="UmjqQ-2BNXsNT93DCILW-11" value="" style="edgeStyle=orthogonalEdgeStyle;rounded=0;orthogonalLoop=1;jettySize=auto;html=1;" edge="1" parent="1" source="UmjqQ-2BNXsNT93DCILW-8" target="UmjqQ-2BNXsNT93DCILW-10">
          <mxGeometry relative="1" as="geometry" />
        </mxCell>
        <mxCell id="UmjqQ-2BNXsNT93DCILW-8" value="User.IsPremium &lt;br&gt;== true" style="rhombus;whiteSpace=wrap;html=1;" vertex="1" parent="1">
          <mxGeometry x="359" y="350" width="110" height="110" as="geometry" />
        </mxCell>
        <mxCell id="UmjqQ-2BNXsNT93DCILW-13" value="" style="edgeStyle=orthogonalEdgeStyle;rounded=0;orthogonalLoop=1;jettySize=auto;html=1;" edge="1" parent="1" source="UmjqQ-2BNXsNT93DCILW-10" target="UmjqQ-2BNXsNT93DCILW-12">
          <mxGeometry relative="1" as="geometry" />
        </mxCell>
        <mxCell id="UmjqQ-2BNXsNT93DCILW-10" value="Вывести &quot;Посетите наш &lt;br&gt;новый сайт с &lt;br&gt;бесплатными играми free.games.for.a.fool.com&quot;" style="shape=parallelogram;perimeter=parallelogramPerimeter;whiteSpace=wrap;html=1;fixedSize=1;" vertex="1" parent="1">
          <mxGeometry x="490" y="470" width="180" height="90" as="geometry" />
        </mxCell>
        <mxCell id="UmjqQ-2BNXsNT93DCILW-15" value="" style="edgeStyle=orthogonalEdgeStyle;rounded=0;orthogonalLoop=1;jettySize=auto;html=1;" edge="1" parent="1" source="UmjqQ-2BNXsNT93DCILW-12" target="UmjqQ-2BNXsNT93DCILW-14">
          <mxGeometry relative="1" as="geometry" />
        </mxCell>
        <mxCell id="UmjqQ-2BNXsNT93DCILW-12" value="Вывести &quot;Купите подписку&lt;br&gt;&amp;nbsp;на МыКомбо и слушайте музыку везде и всегда.&lt;span style=&quot;background-color: initial;&quot;&gt;&quot;&lt;/span&gt;" style="shape=parallelogram;perimeter=parallelogramPerimeter;whiteSpace=wrap;html=1;fixedSize=1;" vertex="1" parent="1">
          <mxGeometry x="490" y="585" width="180" height="90" as="geometry" />
        </mxCell>
        <mxCell id="UmjqQ-2BNXsNT93DCILW-14" value="Вывести &quot;Оформите &lt;br&gt;премиум-подписку на наш сервис,чтобы не видеть рекламу.&lt;span style=&quot;background-color: initial;&quot;&gt;&quot;&lt;/span&gt;" style="shape=parallelogram;perimeter=parallelogramPerimeter;whiteSpace=wrap;html=1;fixedSize=1;" vertex="1" parent="1">
          <mxGeometry x="490" y="700" width="180" height="90" as="geometry" />
        </mxCell>
        <mxCell id="UmjqQ-2BNXsNT93DCILW-18" value="Начало" style="ellipse;whiteSpace=wrap;html=1;" vertex="1" parent="1">
          <mxGeometry x="354" y="80" width="120" height="80" as="geometry" />
        </mxCell>
        <mxCell id="UmjqQ-2BNXsNT93DCILW-19" value="Конец" style="ellipse;whiteSpace=wrap;html=1;" vertex="1" parent="1">
          <mxGeometry x="340" y="840" width="120" height="80" as="geometry" />
        </mxCell>
        <mxCell id="UmjqQ-2BNXsNT93DCILW-25" value="" style="edgeStyle=orthogonalEdgeStyle;rounded=0;orthogonalLoop=1;jettySize=auto;html=1;entryX=0.506;entryY=-0.043;entryDx=0;entryDy=0;entryPerimeter=0;" edge="1" parent="1" source="UmjqQ-2BNXsNT93DCILW-14" target="UmjqQ-2BNXsNT93DCILW-19">
          <mxGeometry relative="1" as="geometry">
            <mxPoint x="580" y="790" as="sourcePoint" />
            <mxPoint x="403" y="810" as="targetPoint" />
            <Array as="points">
              <mxPoint x="580" y="810" />
              <mxPoint x="401" y="810" />
            </Array>
          </mxGeometry>
        </mxCell>
        <mxCell id="UmjqQ-2BNXsNT93DCILW-30" value="" style="endArrow=none;html=1;rounded=0;entryX=0;entryY=0.5;entryDx=0;entryDy=0;" edge="1" parent="1" target="UmjqQ-2BNXsNT93DCILW-8">
          <mxGeometry width="50" height="50" relative="1" as="geometry">
            <mxPoint x="400" y="810" as="sourcePoint" />
            <mxPoint x="359" y="400" as="targetPoint" />
            <Array as="points">
              <mxPoint x="240" y="810" />
              <mxPoint x="240" y="600" />
              <mxPoint x="240" y="405" />
            </Array>
          </mxGeometry>
        </mxCell>
      </root>
    </mxGraphModel>
  </diagram>
</mxfile>
